<?xml version="1.0" encoding="UTF-8" standalone="no"?>
<!-- Generated by SVGo -->

<svg
   width="340mm"
   height="250mm"
   viewBox="0 0 339.99998 250"
   version="1.1"
   id="svg45"
   sodipodi:docname="Sweek.svg"
   inkscape:version="1.2.2 (732a01da63, 2022-12-09)"
   xml:space="preserve"
   xmlns:inkscape="http://www.inkscape.org/namespaces/inkscape"
   xmlns:sodipodi="http://sodipodi.sourceforge.net/DTD/sodipodi-0.dtd"
   xmlns="http://www.w3.org/2000/svg"
   xmlns:svg="http://www.w3.org/2000/svg"><defs
     id="defs45"><clipPath
       clipPathUnits="userSpaceOnUse"
       id="clipPath3"><rect
         style="opacity:0.79;fill:#808080;stroke:#ffffff;stroke-width:0.132292;stroke-linejoin:round"
         id="rect4"
         width="110.06667"
         height="90.752083"
         x="230.18748"
         y="255.58749" /></clipPath></defs><sodipodi:namedview
     id="namedview45"
     pagecolor="#ffffff"
     bordercolor="#eeeeee"
     borderopacity="1"
     inkscape:showpageshadow="0"
     inkscape:pageopacity="0"
     inkscape:pagecheckerboard="0"
     inkscape:deskcolor="#505050"
     inkscape:document-units="mm"
     showgrid="false"
     inkscape:zoom="0.5"
     inkscape:cx="185"
     inkscape:cy="530"
     inkscape:window-width="1920"
     inkscape:window-height="1009"
     inkscape:window-x="-8"
     inkscape:window-y="-8"
     inkscape:window-maximized="1"
     inkscape:current-layer="svg45"
     showguides="true"><inkscape:grid
       type="xygrid"
       id="grid368" /></sodipodi:namedview><path
     id="path2-6-29-5-5-1-4"
     style="display:inline;fill:none;fill-opacity:1;stroke:#000000;stroke-width:0.1;stroke-dasharray:none;stroke-opacity:1"
     d="m 288.58891,129.11703 c 0,0 19.71821,5.21552 28.82803,16.02197 l 0.0827,46.79005 c -0.0366,10.89541 1.34712,9.89656 -5.03474,9.91995 -2.4602,0.009 -6.17932,0.0594 -9.17613,0.162 -17.28971,0.59248 -35.53058,3.18799 -54.67665,7.33756 -16.54265,4.25132 -29.19976,11.80957 -43.31106,24.16799 -1.49905,1.0781 -2.42748,-0.9345 -3.81047,-2.56029 -1.9951,-2.34537 -5.51574,-6.9102 -6.85074,-8.45925 -2.61379,-3.55263 -2.3803,-2.71957 2.3177,-6.86758 4.68553,-3.68896 4.65372,-13.56323 4.8222,-19.4628 0,-35.35305 -0.0443,-28.35953 -0.0458,-53.15935 -2.3e-4,-3.76915 -0.19205,-4.76493 2.34814,-5.44557 4.28956,-1.14938 11.64244,-0.934 18.98449,-3.7459 17.10928,-6.55261 39.88231,-8.08123 50.61278,-7.5271 6.62349,0.34204 14.90951,2.82832 14.90951,2.82832 z"
     sodipodi:nodetypes="sccssccscccscssss"
     inkscape:label="RightBaseBottom" /><polygon
     points="116.587,57.892 103.587,57.892 103.587,70.892 116.587,70.892 "
     style="fill:none;stroke:#000000;stroke-width:0.0935349;stroke-dasharray:none"
     id="polygon12-07-4"
     transform="matrix(-1.0691198,0,0,1.0691198,350.14464,112.30087)" /><polygon
     points="40.387,55.987 27.387,55.987 27.387,68.987 40.387,68.987 "
     style="fill:none;stroke:#000000;stroke-width:0.0935351;stroke-dasharray:none"
     id="polygon14-1-0"
     transform="matrix(-1.0691175,0,0,1.0691175,344.47672,125.23115)" /><polygon
     points="59.437,51.225 46.437,51.225 46.437,64.224 59.437,64.224 "
     style="fill:none;stroke:#000000;stroke-width:0.0935372;stroke-dasharray:none"
     id="polygon17-5-6"
     transform="matrix(-1.0690934,0,0,1.0690934,345.89364,118.58569)" /><polygon
     points="97.537,51.225 84.537,51.225 84.537,64.224 97.537,64.224 "
     style="fill:none;stroke:#000000;stroke-width:0.0935372;stroke-dasharray:none"
     id="polygon18-8-1"
     transform="matrix(-1.0690934,0,0,1.0690934,348.72567,116.99544)" /><polygon
     points="65.486,44.557 65.486,57.557 78.487,57.557 78.487,44.557 "
     style="fill:none;stroke:#000000;stroke-width:0.0935444;stroke-dasharray:none"
     id="polygon21-6-8"
     transform="matrix(-1.0690112,0,0,1.0690112,347.30399,119.57912)" /><polygon
     points="103.587,38.842 103.587,51.842 116.587,51.842 116.587,38.842 "
     style="fill:none;stroke:#000000;stroke-width:0.0935349;stroke-dasharray:none"
     id="polygon25-1-9"
     transform="matrix(-1.0691198,0,0,1.0691198,350.14464,113.71605)" /><polygon
     points="103.587,57.892 103.587,70.892 116.587,70.892 116.587,57.892 "
     style="fill:none;stroke:#000000;stroke-width:0.0935349;stroke-dasharray:none"
     id="polygon12-0-2-8"
     transform="matrix(-1.0324079,0.27776047,0.27776047,1.0324079,337.8767,104.30418)" /><polygon
     points="116.587,70.892 116.587,57.892 103.587,57.892 103.587,70.892 "
     style="fill:none;stroke:#000000;stroke-width:0.0935349;stroke-dasharray:none"
     id="polygon12-0-9-4-4"
     transform="matrix(-0.82597292,0.67881211,0.67881211,0.82597292,252.8122,93.144138)" /><polygon
     points="116.587,57.892 103.587,57.892 103.587,70.892 116.587,70.892 "
     style="fill:none;stroke:#000000;stroke-width:0.093677;stroke-dasharray:none"
     id="polygon12-0-4-2-1"
     transform="matrix(-0.92423017,0.53418162,0.53418162,0.92423017,289.88581,91.1526)" /><polygon
     points="40.387,36.937 27.387,36.937 27.387,49.937 40.387,49.937 "
     style="fill:none;stroke:#000000;stroke-width:0.0935351;stroke-dasharray:none"
     id="polygon27-86-4"
     transform="matrix(-1.0691175,0,0,1.0691175,344.47672,126.64682)" /><polygon
     points="46.437,32.174 46.437,45.175 59.437,45.175 59.437,32.174 "
     style="fill:none;stroke:#000000;stroke-width:0.0935372;stroke-dasharray:none"
     id="polygon30-2-3"
     transform="matrix(-1.0690934,0,0,1.0690934,345.89364,120.00088)" /><polygon
     points="84.537,32.174 84.537,45.175 97.537,45.175 97.537,32.174 "
     style="fill:none;stroke:#000000;stroke-width:0.0935372;stroke-dasharray:none"
     id="polygon31-65-9"
     transform="matrix(-1.0690934,0,0,1.0690934,348.72567,118.41063)" /><polygon
     points="65.486,38.507 78.487,38.507 78.487,25.507 65.486,25.507 "
     style="fill:none;stroke:#000000;stroke-width:0.0935444;stroke-dasharray:none"
     id="polygon33-3-8"
     transform="matrix(-1.0690112,0,0,1.0690112,347.30399,120.99271)" /><polygon
     points="116.587,19.792 103.587,19.792 103.587,32.792 116.587,32.792 "
     style="fill:none;stroke:#000000;stroke-width:0.0935349;stroke-dasharray:none"
     id="polygon37-9-8"
     transform="matrix(-1.0691198,0,0,1.0691198,350.14464,115.13329)" /><polygon
     points="27.387,30.887 40.387,30.887 40.387,17.887 27.387,17.887 "
     style="fill:none;stroke:#000000;stroke-width:0.0935223;stroke-dasharray:none"
     id="polygon39-4-0"
     transform="matrix(-1.0691175,0,0,1.0694087,344.47669,128.05837)" /><polygon
     points="59.437,13.125 46.437,13.125 46.437,26.125 59.437,26.125 "
     style="fill:none;stroke:#000000;stroke-width:0.0935372;stroke-dasharray:none"
     id="polygon42-6-8"
     transform="matrix(-1.0690934,0,0,1.0690934,345.89329,121.41804)" /><polygon
     points="97.537,13.125 84.537,13.125 84.537,26.125 97.537,26.125 "
     style="fill:none;stroke:#000000;stroke-width:0.0935372;stroke-dasharray:none"
     id="polygon43-1-7"
     transform="matrix(-1.0690934,0,0,1.0690934,348.72533,119.82779)" /><polygon
     points="78.487,8.362 65.486,8.362 65.486,21.362 78.487,21.362 "
     style="fill:none;stroke:#000000;stroke-width:0.0935444;stroke-dasharray:none"
     id="polygon45-8-7"
     transform="matrix(-1.0690112,0,0,1.0690112,347.30365,120.37698)" /><polygon
     points="154.113,57.329 154.556,56.886 154.84,56.329 154.938,55.711 154.84,55.093 154.556,54.535 154.113,54.093 153.556,53.809 152.938,53.711 152.319,53.809 151.762,54.093 151.319,54.535 151.035,55.093 150.938,55.711 151.035,56.329 151.319,56.886 151.762,57.329 152.319,57.613 152.938,57.711 153.556,57.613 "
     style="display:inline;fill:none;stroke:#000000;stroke-width:0.182231;stroke-dasharray:none"
     id="polygon19-5-9-94-7-0"
     transform="matrix(-0.54875394,0,0,0.54875394,293.47466,177.95499)"
     inkscape:label="polygon19-5-9-94-7-0" /><polygon
     points="151.762,57.329 152.319,57.613 152.938,57.711 153.556,57.613 154.113,57.329 154.556,56.886 154.84,56.329 154.938,55.711 154.84,55.093 154.556,54.535 154.113,54.093 153.556,53.809 152.938,53.711 152.319,53.809 151.762,54.093 151.319,54.535 151.035,55.093 150.938,55.711 151.035,56.329 151.319,56.886 "
     style="display:inline;fill:none;stroke:#000000;stroke-width:0.182231;stroke-dasharray:none"
     id="polygon19-5-9-94-7-9"
     transform="matrix(-0.54875394,0,0,0.54875394,324.61421,101.6298)" /><polygon
     points="154.113,54.093 153.556,53.809 152.938,53.711 152.319,53.809 151.762,54.093 151.319,54.535 151.035,55.093 150.938,55.711 151.035,56.329 151.319,56.886 151.762,57.329 152.319,57.613 152.938,57.711 153.556,57.613 154.113,57.329 154.556,56.886 154.84,56.329 154.938,55.711 154.84,55.093 154.556,54.535 "
     style="display:inline;fill:none;stroke:#000000;stroke-width:0.182231;stroke-dasharray:none"
     id="polygon19-5-4-2-7-8-4-4"
     transform="matrix(-0.54875394,0,0,0.54875394,388.05248,110.3076)" /><polygon
     points="151.035,56.329 151.319,56.886 151.762,57.329 152.319,57.613 152.938,57.711 153.556,57.613 154.113,57.329 154.556,56.886 154.84,56.329 154.938,55.711 154.84,55.093 154.556,54.535 154.113,54.093 153.556,53.809 152.938,53.711 152.319,53.809 151.762,54.093 151.319,54.535 151.035,55.093 150.938,55.711 "
     style="display:inline;fill:none;stroke:#000000;stroke-width:0.182231;stroke-dasharray:none"
     id="polygon19-5-4-2-9-6-2-9-8"
     transform="matrix(-0.54875394,0,0,0.54875394,376.28236,164.65025)" /><polygon
     points="154.84,55.093 154.556,54.535 154.113,54.093 153.556,53.809 152.938,53.711 152.319,53.809 151.762,54.093 151.319,54.535 151.035,55.093 150.938,55.711 151.035,56.329 151.319,56.886 151.762,57.329 152.319,57.613 152.938,57.711 153.556,57.613 154.113,57.329 154.556,56.886 154.84,56.329 154.938,55.711 "
     style="display:inline;fill:none;stroke:#000000;stroke-width:0.182231;stroke-dasharray:none"
     id="polygon19-5-4-2-9-6-2-6-6-8"
     transform="matrix(-0.54875394,0,0,0.54875394,312.2722,164.02048)" /><circle
     style="display:inline;fill:#dfdfdf;fill-opacity:0;stroke:#000000;stroke-width:0.1;stroke-dasharray:none;stroke-opacity:1"
     id="path8"
     cx="264.62997"
     cy="196.08238"
     r="3.5" /><rect
     style="display:inline;fill:none;stroke:#000000;stroke-width:0.0895928;stroke-linejoin:round;stroke-dasharray:none"
     id="rect2-40-3"
     width="10.565194"
     height="2.4104071"
     x="207.16849"
     y="193.77625"
     ry="0"
     inkscape:label="oledTopHoles" /><path
     id="rect2-0-2-7"
     style="display:inline;fill:none;stroke:#000000;stroke-width:0.1;stroke-linejoin:round;stroke-dasharray:none"
     inkscape:label="rp2040TopHoles"
     d="m 212.4413,150.75048 a 3.7,3.7 0 0 0 -3.54449,2.64222 h -0.43822 c -0.67802,0 -1.22369,0.54567 -1.22369,1.2237 0,0.67803 0.54567,1.22421 1.22369,1.22421 h 0.55501 a 3.7,3.7 0 0 0 3.4277,2.30994 3.7,3.7 0 0 0 3.42769,-2.30994 h 0.55346 c 0.67803,0 1.2237,-0.54618 1.2237,-1.22421 0,-0.67803 -0.54567,-1.2237 -1.2237,-1.2237 h -0.43615 a 3.7,3.7 0 0 0 -3.545,-2.64222 z" /><path
     id="path2-6-29-5-5-1-4-0"
     style="display:inline;fill:none;fill-opacity:1;stroke:#000000;stroke-width:0.1;stroke-dasharray:none;stroke-opacity:1"
     d="m 120.61358,131.14817 c 0,0 19.71821,5.21552 28.82803,16.02197 l 0.0827,46.79005 c -0.0366,10.89541 1.34712,9.89656 -5.03474,9.91995 -2.4602,0.009 -6.17932,0.0594 -9.17613,0.162 -17.28971,0.59248 -35.530577,3.18799 -54.676647,7.33756 -16.54265,4.25132 -29.19976,11.80957 -43.31106,24.16799 -1.49905,1.0781 -2.42748,-0.9345 -3.81047,-2.56029 -1.9951,-2.34537 -5.51574,-6.9102 -6.85074,-8.45925 -2.61379,-3.55263 -2.3803,-2.71957 2.3177,-6.86758 4.68553,-3.68896 4.65372,-13.56323 4.8222,-19.4628 0,-35.35305 -0.0443,-28.35953 -0.0458,-53.15935 -2.3e-4,-3.76915 -0.19205,-4.76493 2.34814,-5.44557 4.28956,-1.14938 11.64244,-0.934 18.98449,-3.7459 17.10928,-6.55261 39.88231,-8.08123 50.612777,-7.5271 6.62349,0.34204 14.90951,2.82832 14.90951,2.82832 z"
     sodipodi:nodetypes="sccssccscccscssss"
     inkscape:label="RightBaseBottom" /><polygon
     points="153.556,53.809 152.938,53.711 152.319,53.809 151.762,54.093 151.319,54.535 151.035,55.093 150.938,55.711 151.035,56.329 151.319,56.886 151.762,57.329 152.319,57.613 152.938,57.711 153.556,57.613 154.113,57.329 154.556,56.886 154.84,56.329 154.938,55.711 154.84,55.093 154.556,54.535 154.113,54.093 "
     style="display:inline;fill:none;stroke:#000000;stroke-width:0.182231;stroke-dasharray:none"
     id="polygon19-5-9-94-7-0-8"
     transform="matrix(-0.54875394,0,0,0.54875394,125.49933,179.98613)"
     inkscape:label="polygon19-5-9-94-7-0" /><polygon
     points="154.938,55.711 154.84,55.093 154.556,54.535 154.113,54.093 153.556,53.809 152.938,53.711 152.319,53.809 151.762,54.093 151.319,54.535 151.035,55.093 150.938,55.711 151.035,56.329 151.319,56.886 151.762,57.329 152.319,57.613 152.938,57.711 153.556,57.613 154.113,57.329 154.556,56.886 154.84,56.329 "
     style="display:inline;fill:none;stroke:#000000;stroke-width:0.182231;stroke-dasharray:none"
     id="polygon19-5-9-94-7-9-7"
     transform="matrix(-0.54875394,0,0,0.54875394,156.63888,103.66094)" /><polygon
     points="150.938,55.711 151.035,56.329 151.319,56.886 151.762,57.329 152.319,57.613 152.938,57.711 153.556,57.613 154.113,57.329 154.556,56.886 154.84,56.329 154.938,55.711 154.84,55.093 154.556,54.535 154.113,54.093 153.556,53.809 152.938,53.711 152.319,53.809 151.762,54.093 151.319,54.535 151.035,55.093 "
     style="display:inline;fill:none;stroke:#000000;stroke-width:0.182231;stroke-dasharray:none"
     id="polygon19-5-4-2-7-8-4-4-3"
     transform="matrix(-0.54875394,0,0,0.54875394,220.07715,112.33874)" /><polygon
     points="154.556,56.886 154.84,56.329 154.938,55.711 154.84,55.093 154.556,54.535 154.113,54.093 153.556,53.809 152.938,53.711 152.319,53.809 151.762,54.093 151.319,54.535 151.035,55.093 150.938,55.711 151.035,56.329 151.319,56.886 151.762,57.329 152.319,57.613 152.938,57.711 153.556,57.613 154.113,57.329 "
     style="display:inline;fill:none;stroke:#000000;stroke-width:0.182231;stroke-dasharray:none"
     id="polygon19-5-4-2-9-6-2-9-8-5"
     transform="matrix(-0.54875394,0,0,0.54875394,208.30703,166.68139)" /><polygon
     points="151.319,54.535 151.035,55.093 150.938,55.711 151.035,56.329 151.319,56.886 151.762,57.329 152.319,57.613 152.938,57.711 153.556,57.613 154.113,57.329 154.556,56.886 154.84,56.329 154.938,55.711 154.84,55.093 154.556,54.535 154.113,54.093 153.556,53.809 152.938,53.711 152.319,53.809 151.762,54.093 "
     style="display:inline;fill:none;stroke:#000000;stroke-width:0.182231;stroke-dasharray:none"
     id="polygon19-5-4-2-9-6-2-6-6-8-4"
     transform="matrix(-0.54875394,0,0,0.54875394,144.29687,166.05162)" /><path
     id="path2-6-29-5-5-1-4-8"
     style="display:inline;fill:none;fill-opacity:1;stroke:#000000;stroke-width:0.1;stroke-dasharray:none;stroke-opacity:1"
     d="m 59.322954,11.709415 c 0,0 -19.71821,5.21552 -28.82803,16.02197 l -0.0827,46.79005 c 0.0366,10.89541 -1.34712,9.89656 5.03474,9.91995 2.4602,0.009 6.17932,0.0594 9.17613,0.162 17.28971,0.59248 35.53058,3.18799 54.67665,7.33756 16.542646,4.25132 29.199756,11.809565 43.311056,24.167985 1.49905,1.0781 2.42748,-0.9345 3.81047,-2.56029 1.9951,-2.34537 5.51574,-6.9102 6.85074,-8.45925 2.61379,-3.55263 2.3803,-2.71957 -2.3177,-6.867575 -4.68553,-3.68896 -4.65372,-13.56323 -4.8222,-19.4628 0,-35.35305 0.0443,-28.35953 0.0458,-53.15935 2.3e-4,-3.76915 0.19205,-4.76493 -2.34814,-5.44557 -4.28956,-1.14938 -11.64244,-0.934 -18.98449,-3.7459 C 107.736,9.8555848 84.962974,8.3269648 74.232504,8.8810948 c -6.62349,0.34204 -14.90951,2.8283202 -14.90951,2.8283202 z"
     sodipodi:nodetypes="sccssccscccscssss"
     inkscape:label="RightBaseBottom" /><polygon
     points="116.587,57.892 103.587,57.892 103.587,70.892 116.587,70.892 "
     style="fill:none;stroke:#000000;stroke-width:0.0935349;stroke-dasharray:none"
     id="polygon12-07-4-7"
     transform="matrix(1.0691198,0,0,1.0691198,-2.2327735,-5.1067455)" /><polygon
     points="40.387,55.987 27.387,55.987 27.387,68.987 40.387,68.987 "
     style="fill:none;stroke:#000000;stroke-width:0.0935351;stroke-dasharray:none"
     id="polygon14-1-0-5"
     transform="matrix(1.0691175,0,0,1.0691175,3.4351405,7.8235358)" /><polygon
     points="59.437,51.225 46.437,51.225 46.437,64.224 59.437,64.224 "
     style="fill:none;stroke:#000000;stroke-width:0.0935372;stroke-dasharray:none"
     id="polygon17-5-6-6"
     transform="matrix(1.0690934,0,0,1.0690934,2.0182285,1.178078)" /><polygon
     points="97.537,51.225 84.537,51.225 84.537,64.224 97.537,64.224 "
     style="fill:none;stroke:#000000;stroke-width:0.0935372;stroke-dasharray:none"
     id="polygon18-8-1-2"
     transform="matrix(1.0690934,0,0,1.0690934,-0.8138105,-0.4121756)" /><polygon
     points="65.486,44.557 65.486,57.557 78.487,57.557 78.487,44.557 "
     style="fill:none;stroke:#000000;stroke-width:0.0935444;stroke-dasharray:none"
     id="polygon21-6-8-2"
     transform="matrix(1.0690112,0,0,1.0690112,0.6078705,2.171508)" /><polygon
     points="103.587,38.842 103.587,51.842 116.587,51.842 116.587,38.842 "
     style="fill:none;stroke:#000000;stroke-width:0.0935349;stroke-dasharray:none"
     id="polygon25-1-9-6"
     transform="matrix(1.0691198,0,0,1.0691198,-2.2327735,-3.6915656)" /><polygon
     points="103.587,57.892 103.587,70.892 116.587,70.892 116.587,57.892 "
     style="fill:none;stroke:#000000;stroke-width:0.0935349;stroke-dasharray:none"
     id="polygon12-0-2-8-7"
     transform="matrix(1.0324079,0.27776047,-0.27776047,1.0324079,10.035164,-13.103431)" /><polygon
     points="116.587,70.892 116.587,57.892 103.587,57.892 103.587,70.892 "
     style="fill:none;stroke:#000000;stroke-width:0.0935349;stroke-dasharray:none"
     id="polygon12-0-9-4-4-3"
     transform="matrix(0.82597292,0.67881211,-0.67881211,0.82597292,95.099663,-24.263477)" /><polygon
     points="116.587,57.892 103.587,57.892 103.587,70.892 116.587,70.892 "
     style="fill:none;stroke:#000000;stroke-width:0.093677;stroke-dasharray:none"
     id="polygon12-0-4-2-1-6"
     transform="matrix(0.92423017,0.53418162,-0.53418162,0.92423017,58.026054,-26.255015)" /><polygon
     points="40.387,36.937 27.387,36.937 27.387,49.937 40.387,49.937 "
     style="fill:none;stroke:#000000;stroke-width:0.0935351;stroke-dasharray:none"
     id="polygon27-86-4-6"
     transform="matrix(1.0691175,0,0,1.0691175,3.4351405,9.2392068)" /><polygon
     points="46.437,32.174 46.437,45.175 59.437,45.175 59.437,32.174 "
     style="fill:none;stroke:#000000;stroke-width:0.0935372;stroke-dasharray:none"
     id="polygon30-2-3-7"
     transform="matrix(1.0690934,0,0,1.0690934,2.0182285,2.593268)" /><polygon
     points="84.537,32.174 84.537,45.175 97.537,45.175 97.537,32.174 "
     style="fill:none;stroke:#000000;stroke-width:0.0935372;stroke-dasharray:none"
     id="polygon31-65-9-2"
     transform="matrix(1.0690934,0,0,1.0690934,-0.8138105,1.0030144)" /><polygon
     points="65.486,38.507 78.487,38.507 78.487,25.507 65.486,25.507 "
     style="fill:none;stroke:#000000;stroke-width:0.0935444;stroke-dasharray:none"
     id="polygon33-3-8-0"
     transform="matrix(1.0690112,0,0,1.0690112,0.6078705,3.585098)" /><polygon
     points="116.587,19.792 103.587,19.792 103.587,32.792 116.587,32.792 "
     style="fill:none;stroke:#000000;stroke-width:0.0935349;stroke-dasharray:none"
     id="polygon37-9-8-9"
     transform="matrix(1.0691198,0,0,1.0691198,-2.2327735,-2.2743256)" /><polygon
     points="27.387,30.887 40.387,30.887 40.387,17.887 27.387,17.887 "
     style="fill:none;stroke:#000000;stroke-width:0.0935223;stroke-dasharray:none"
     id="polygon39-4-0-2"
     transform="matrix(1.0691175,0,0,1.0694087,3.4351765,10.650757)" /><polygon
     points="59.437,13.125 46.437,13.125 46.437,26.125 59.437,26.125 "
     style="fill:none;stroke:#000000;stroke-width:0.0935372;stroke-dasharray:none"
     id="polygon42-6-8-1"
     transform="matrix(1.0690934,0,0,1.0690934,2.0185725,4.010428)" /><polygon
     points="97.537,13.125 84.537,13.125 84.537,26.125 97.537,26.125 "
     style="fill:none;stroke:#000000;stroke-width:0.0935372;stroke-dasharray:none"
     id="polygon43-1-7-0"
     transform="matrix(1.0690934,0,0,1.0690934,-0.8134665,2.4201744)" /><polygon
     points="78.487,8.362 65.486,8.362 65.486,21.362 78.487,21.362 "
     style="fill:none;stroke:#000000;stroke-width:0.0935444;stroke-dasharray:none"
     id="polygon45-8-7-3"
     transform="matrix(1.0690112,0,0,1.0690112,0.6082155,2.969368)" /><polygon
     points="152.938,53.711 152.319,53.809 151.762,54.093 151.319,54.535 151.035,55.093 150.938,55.711 151.035,56.329 151.319,56.886 151.762,57.329 152.319,57.613 152.938,57.711 153.556,57.613 154.113,57.329 154.556,56.886 154.84,56.329 154.938,55.711 154.84,55.093 154.556,54.535 154.113,54.093 153.556,53.809 "
     style="display:inline;fill:none;stroke:#000000;stroke-width:0.182231;stroke-dasharray:none"
     id="polygon19-5-9-94-7-0-7"
     transform="matrix(0.54875394,0,0,0.54875394,54.4372,60.547372)"
     inkscape:label="polygon19-5-9-94-7-0" /><polygon
     points="154.84,55.093 154.556,54.535 154.113,54.093 153.556,53.809 152.938,53.711 152.319,53.809 151.762,54.093 151.319,54.535 151.035,55.093 150.938,55.711 151.035,56.329 151.319,56.886 151.762,57.329 152.319,57.613 152.938,57.711 153.556,57.613 154.113,57.329 154.556,56.886 154.84,56.329 154.938,55.711 "
     style="display:inline;fill:none;stroke:#000000;stroke-width:0.182231;stroke-dasharray:none"
     id="polygon19-5-9-94-7-9-3"
     transform="matrix(0.54875394,0,0,0.54875394,23.297657,-15.777812)" /><polygon
     points="151.035,56.329 151.319,56.886 151.762,57.329 152.319,57.613 152.938,57.711 153.556,57.613 154.113,57.329 154.556,56.886 154.84,56.329 154.938,55.711 154.84,55.093 154.556,54.535 154.113,54.093 153.556,53.809 152.938,53.711 152.319,53.809 151.762,54.093 151.319,54.535 151.035,55.093 150.938,55.711 "
     style="display:inline;fill:none;stroke:#000000;stroke-width:0.182231;stroke-dasharray:none"
     id="polygon19-5-4-2-7-8-4-4-9"
     transform="matrix(0.54875394,0,0,0.54875394,-40.140621,-7.1000115)" /><polygon
     points="154.84,56.329 154.938,55.711 154.84,55.093 154.556,54.535 154.113,54.093 153.556,53.809 152.938,53.711 152.319,53.809 151.762,54.093 151.319,54.535 151.035,55.093 150.938,55.711 151.035,56.329 151.319,56.886 151.762,57.329 152.319,57.613 152.938,57.711 153.556,57.613 154.113,57.329 154.556,56.886 "
     style="display:inline;fill:none;stroke:#000000;stroke-width:0.182231;stroke-dasharray:none"
     id="polygon19-5-4-2-9-6-2-9-8-0"
     transform="matrix(0.54875394,0,0,0.54875394,-28.370499,47.242634)" /><polygon
     points="151.035,55.093 150.938,55.711 151.035,56.329 151.319,56.886 151.762,57.329 152.319,57.613 152.938,57.711 153.556,57.613 154.113,57.329 154.556,56.886 154.84,56.329 154.938,55.711 154.84,55.093 154.556,54.535 154.113,54.093 153.556,53.809 152.938,53.711 152.319,53.809 151.762,54.093 151.319,54.535 "
     style="display:inline;fill:none;stroke:#000000;stroke-width:0.182231;stroke-dasharray:none"
     id="polygon19-5-4-2-9-6-2-6-6-8-3"
     transform="matrix(0.54875394,0,0,0.54875394,35.639663,46.612869)" /><circle
     style="display:inline;fill:#dfdfdf;fill-opacity:0;stroke:#000000;stroke-width:0.1;stroke-dasharray:none;stroke-opacity:1"
     id="path8-6"
     cx="-83.281883"
     cy="78.674767"
     r="3.5"
     transform="scale(-1,1)" /><rect
     style="display:inline;fill:none;stroke:#000000;stroke-width:0.0895928;stroke-linejoin:round;stroke-dasharray:none"
     id="rect2-40-3-7"
     width="10.565194"
     height="2.4104071"
     x="-140.74339"
     y="76.368637"
     ry="0"
     inkscape:label="oledTopHoles"
     transform="scale(-1,1)" /><path
     id="rect2-0-2-7-8"
     style="display:inline;fill:none;stroke:#000000;stroke-width:0.1;stroke-linejoin:round;stroke-dasharray:none"
     inkscape:label="rp2040TopHoles"
     d="m 135.47056,33.342865 a 3.7,3.7 0 0 1 3.54449,2.64222 h 0.43822 c 0.67802,0 1.22369,0.54567 1.22369,1.2237 0,0.67803 -0.54567,1.22421 -1.22369,1.22421 h -0.55501 a 3.7,3.7 0 0 1 -3.4277,2.30994 3.7,3.7 0 0 1 -3.42769,-2.30994 h -0.55346 c -0.67803,0 -1.2237,-0.54618 -1.2237,-1.22421 0,-0.67803 0.54567,-1.2237 1.2237,-1.2237 h 0.43615 a 3.7,3.7 0 0 1 3.545,-2.64222 z" /><path
     id="path2-6-29-5-5-1-4-0-4"
     style="display:inline;fill:none;fill-opacity:1;stroke:#000000;stroke-width:0.1;stroke-dasharray:none;stroke-opacity:1"
     d="m 227.29828,13.740555 c 0,0 -19.71821,5.21552 -28.82803,16.02197 l -0.0827,46.79005 c 0.0366,10.89541 -1.34712,9.89656 5.03474,9.91995 2.4602,0.009 6.17932,0.0594 9.17613,0.162 17.28971,0.59248 35.53058,3.18799 54.67666,7.33756 16.54265,4.25132 29.19976,11.809565 43.31106,24.167985 1.49905,1.0781 2.42748,-0.9345 3.81047,-2.56029 1.9951,-2.34537 5.51574,-6.9102 6.85074,-8.45925 2.61379,-3.55263 2.3803,-2.71957 -2.3177,-6.86758 -4.68553,-3.688955 -4.65372,-13.563225 -4.8222,-19.462795 0,-35.35305 0.0443,-28.35953 0.0458,-53.15935 2.3e-4,-3.76915 0.19205,-4.76493 -2.34814,-5.44557 -4.28956,-1.14938 -11.64244,-0.934 -18.98449,-3.7459 -17.10928,-6.55261 -39.88232,-8.08123 -50.61278,-7.5271 -6.62349,0.34204 -14.90952,2.82832 -14.90952,2.82832 z"
     sodipodi:nodetypes="sccssccscccscssss"
     inkscape:label="RightBaseBottom" /><polygon
     points="151.319,56.886 151.762,57.329 152.319,57.613 152.938,57.711 153.556,57.613 154.113,57.329 154.556,56.886 154.84,56.329 154.938,55.711 154.84,55.093 154.556,54.535 154.113,54.093 153.556,53.809 152.938,53.711 152.319,53.809 151.762,54.093 151.319,54.535 151.035,55.093 150.938,55.711 151.035,56.329 "
     style="display:inline;fill:none;stroke:#000000;stroke-width:0.182231;stroke-dasharray:none"
     id="polygon19-5-9-94-7-0-8-2"
     transform="matrix(0.54875394,0,0,0.54875394,222.41253,62.578512)"
     inkscape:label="polygon19-5-9-94-7-0" /><polygon
     points="151.319,54.535 151.035,55.093 150.938,55.711 151.035,56.329 151.319,56.886 151.762,57.329 152.319,57.613 152.938,57.711 153.556,57.613 154.113,57.329 154.556,56.886 154.84,56.329 154.938,55.711 154.84,55.093 154.556,54.535 154.113,54.093 153.556,53.809 152.938,53.711 152.319,53.809 151.762,54.093 "
     style="display:inline;fill:none;stroke:#000000;stroke-width:0.182231;stroke-dasharray:none"
     id="polygon19-5-9-94-7-9-7-1"
     transform="matrix(0.54875394,0,0,0.54875394,191.27298,-13.746672)" /><polygon
     points="154.556,56.886 154.84,56.329 154.938,55.711 154.84,55.093 154.556,54.535 154.113,54.093 153.556,53.809 152.938,53.711 152.319,53.809 151.762,54.093 151.319,54.535 151.035,55.093 150.938,55.711 151.035,56.329 151.319,56.886 151.762,57.329 152.319,57.613 152.938,57.711 153.556,57.613 154.113,57.329 "
     style="display:inline;fill:none;stroke:#000000;stroke-width:0.182231;stroke-dasharray:none"
     id="polygon19-5-4-2-7-8-4-4-3-6"
     transform="matrix(0.54875394,0,0,0.54875394,127.83471,-5.0688715)" /><polygon
     points="152.319,53.809 151.762,54.093 151.319,54.535 151.035,55.093 150.938,55.711 151.035,56.329 151.319,56.886 151.762,57.329 152.319,57.613 152.938,57.711 153.556,57.613 154.113,57.329 154.556,56.886 154.84,56.329 154.938,55.711 154.84,55.093 154.556,54.535 154.113,54.093 153.556,53.809 152.938,53.711 "
     style="display:inline;fill:none;stroke:#000000;stroke-width:0.182231;stroke-dasharray:none"
     id="polygon19-5-4-2-9-6-2-9-8-5-2"
     transform="matrix(0.54875394,0,0,0.54875394,139.60483,49.273774)" /><polygon
     points="153.556,57.613 154.113,57.329 154.556,56.886 154.84,56.329 154.938,55.711 154.84,55.093 154.556,54.535 154.113,54.093 153.556,53.809 152.938,53.711 152.319,53.809 151.762,54.093 151.319,54.535 151.035,55.093 150.938,55.711 151.035,56.329 151.319,56.886 151.762,57.329 152.319,57.613 152.938,57.711 "
     style="display:inline;fill:none;stroke:#000000;stroke-width:0.182231;stroke-dasharray:none"
     id="polygon19-5-4-2-9-6-2-6-6-8-4-0"
     transform="matrix(0.54875394,0,0,0.54875394,203.61499,48.644009)" /></svg>
